<?xml version="1.0" encoding="utf-8"?>
<!-- Generator: Adobe Illustrator 15.0.2, SVG Export Plug-In . SVG Version: 6.00 Build 0)  -->
<!DOCTYPE svg PUBLIC "-//W3C//DTD SVG 1.1//EN" "http://www.w3.org/Graphics/SVG/1.1/DTD/svg11.dtd">
<svg version="1.1"
	 id="svg602" xmlns:sodipodi="http://sodipodi.sourceforge.net/DTD/sodipodi-0.dtd" sodipodi:version="0.34" sodipodi:docname="I:\Projs\CLIPAR~1\AUTOTR~1\img.svg"
	 xmlns="http://www.w3.org/2000/svg" xmlns:xlink="http://www.w3.org/1999/xlink" x="0px" y="0px" width="64.559px"
	 height="64.558px" viewBox="286.75 206.942 64.559 64.558" enable-background="new 286.75 206.942 64.559 64.558"
	 xml:space="preserve">
<g>
	<path opacity="0.8" fill="#1A171B" d="M303.923,210.894c23.397-1.782,46.437,22.212,44.739,45.355
		c-0.075,1.004-0.184,2.004-0.324,2.996c-0.003,0.012-0.006,0.023-0.006,0.036c-1.701,8.868-2.637,8.013-4.238,7.869
		c-14.437-1.294-22.576-8.433-33.496-12.435c-1.656-0.607-4.734-2.644-5.298-4c-4.2-10.074-7.902-21.999-13.398-34.104
		c-0.414-0.909-2.802-1.53,5.196-4.53c0,0,2.685-0.573,6.813-1.185C303.917,210.897,303.92,210.897,303.923,210.894z"/>
	<path fill="#40610B" d="M302.923,210.894c23.397-1.782,46.437,22.212,44.739,45.355c-0.075,1.004-0.184,2.004-0.324,2.996
		c-0.003,0.012-0.006,0.023-0.006,0.036c-1.701,8.868-2.637,8.013-4.238,7.869c-14.437-1.294-22.576-8.433-33.496-12.435
		c-1.656-0.607-4.734-2.644-5.298-4c-4.2-10.074-7.902-21.999-13.398-34.104c-0.414-0.909-2.802-1.53,5.196-4.53
		c0,0,2.685-0.573,6.813-1.185C302.917,210.897,302.92,210.897,302.923,210.894z"/>
	<path fill="#ACC700" d="M345.196,247.248c0.972,6.825,0.171,13.647-2.085,19.863c-0.039-0.007-0.082-0.013-0.123-0.015
		c-14.437-1.297-22.575-8.437-33.495-12.436c-1.656-0.609-4.734-2.646-5.301-4.002c-4.2-10.074-7.899-21.999-13.395-34.101
		c-0.096-0.21-0.297-0.405-0.45-0.618c3.84-1.692,7.989-2.778,12.015-3.345C321.469,209.905,342.592,228.964,345.196,247.248z"/>
	<path fill="#D7E299" d="M304.789,219.477c19.836-2.37,36.174,18.942,34.416,37.372c-0.312,3.293-1.134,6.408-2.379,9.314
		c-10.785-2.43-18.042-8.076-27.297-11.466c-1.656-0.606-4.734-2.644-5.298-3.999c-3.594-8.622-6.825-18.597-11.127-28.884
		C296.8,220.494,300.616,219.975,304.789,219.477z"/>
	<path id="path1177" fill="#A4C41B" d="M307.19,221.372c-2.916,0.062-7.189-0.441-8.985,2.508c-0.849,1.393,0.112,2.801,0.496,4.168
		c0.987,3.524,1.696,7.054,3.016,10.5c0.956,2.497,1.367,5.066,2.583,7.5c0.314,0.629,0.869,2.038,1.725,2.038
		c1.749,0,3.705-6.306,4.35-7.737c1.649-3.667,2.772-7.576,3.902-11.4c0.435-1.472,1.391-3.209,0.745-4.768
		C314.044,221.823,309.377,221.326,307.19,221.372z"/>
	<path id="path1532" fill="#A4C41B" d="M320.48,227.745c-1.504,0.806-2.188,3.098-2.992,4.503c-2.16,3.78-4.434,7.454-6.25,11.399
		c-0.641,1.395-2.236,3.722-1.532,5.355c0.626,1.453,3.047,0.458,4.083,0.024c3.442-1.44,6.349-3.673,9.601-5.442
		c2.514-1.367,6.045-3.098,7.155-5.937C332.172,233.492,324.799,225.43,320.48,227.745z"/>
	<path id="path2530" fill="#A4C41B" d="M332.689,244.334c-1.005-0.023-1.999,0.831-3,1.015c-4.591,0.847-9.183,2.936-13.5,4.783
		c-1.127,0.482-4.365,1.51-4.313,3.105c0.052,1.601,3.471,2.389,4.614,2.888c4.955,2.166,10.418,4.985,15.922,4.902
		c4.599-0.069,4.764-10.396,3.701-13.479C335.693,246.331,334.095,244.367,332.689,244.334z"/>
	<path fill="#40610B" d="M301.189,211.074c0.573-0.075,1.146-0.135,1.722-0.177c-4.128,0.612-6.813,1.185-6.813,1.185v-0.003
		C297.751,211.641,299.448,211.302,301.189,211.074z"/>
</g>
</svg>
